# xmcd
#
# Track frame offsets: 
#        150
#        21414
#        39258
#        61352
#        79101
#        83437
#        106092
#        124165
#        145932
#        168633
#        180074
#        194806
#        210355
#        220986
#        240472
#        260760
#        262569
#        279330
#
# Disc length: 3807 seconds
#
# Revision: 7
# Processed by: cddbd v1.5.2PL0 Copyright (c) Steve Scherf et al.
# Submitted via: ExactAudioCopy v0.95a5
#
DISCID=f00edd12
DTITLE=Fräuleinwunder - Phazz-A-Delic Uppercuts Vol.1
DYEAR=2003
DGENRE=Acid Jazz
TTITLE0=Down Here
TTITLE1=Schleier der Nacht
TTITLE2=Candy
TTITLE3=Nie Monoton
TTITLE4=Vinyl Breeze
TTITLE5=Caracas Last Year
TTITLE6=Estallada
TTITLE7=Porch Swing
TTITLE8=Kleine Weile
TTITLE9=No Pasaran, Amor
TTITLE10=Diebe
TTITLE11=Bikini Klub
TTITLE12=Now That We've Quit
TTITLE13=Warm and Tender
TTITLE14=Bridgetown Bossa
TTITLE15=Half Moon Sigh Int.
TTITLE16=Dein will ich sein
TTITLE17=Porch Swing-Out-Dub
EXTD=YEAR: 2003
EXTT0=
EXTT1=
EXTT2=
EXTT3=
EXTT4=
EXTT5=
EXTT6=
EXTT7=
EXTT8=
EXTT9=
EXTT10=
EXTT11=
EXTT12=
EXTT13=
EXTT14=
EXTT15=
EXTT16=
EXTT17=
PLAYORDER=
